<svg width="200" height="200" viewBox="0 0 200 200" fill="none" xmlns="http://www.w3.org/2000/svg">
<g opacity="0.5" clip-path="url(#clip0)">
<path d="M7.94404 52.1534C-1.41807 67.5432 -2.40479 94.1897 4.45303 110.847C10.4597 125.437 22.4085 139.132 38.0937 140.848C43.8616 141.478 49.7569 140.448 55.4655 141.487C75.0972 145.062 82.3999 169.257 97.6569 182.118C108.275 191.068 123.008 194.235 136.787 192.511C150.567 190.787 163.468 184.557 174.825 176.564C183.792 170.253 192.183 162.493 196.608 152.46C205.883 131.429 194.971 106.171 178.019 90.6479C172.739 85.8131 166.855 81.5487 162.443 75.9108C158.031 70.2729 155.224 62.7487 157.326 55.9053C159.003 50.4456 163.517 46.2131 165.227 40.7635C167.555 33.3479 164.042 25.0288 158.273 19.8198C152.505 14.6108 144.872 11.9921 137.31 10.1948C105.629 2.66354 36.2073 5.69322 7.94404 52.1534Z" fill="url(#paint0_linear)"/>
<path opacity="0.1" d="M167.434 27.655C166.629 27.4155 165.783 27.287 164.901 27.287L54.1939 27.2827C49.2697 27.2827 45.2783 31.2784 45.2783 36.1983V168.162H30.7693C28.3096 168.162 26.3115 170.156 26.3115 172.616V179.748C26.3115 184.671 30.3029 188.663 35.2228 188.663H145.501C150.421 188.663 154.413 184.671 154.413 179.752V50.0206H169.359C171.819 50.0206 173.813 48.0269 173.813 45.5671V36.1983C173.812 32.1601 171.121 28.746 167.434 27.655Z" fill="#0000CC"/>
<path d="M173.813 26.2326V35.6018C173.813 38.0615 171.819 40.0553 169.359 40.0553H150.048V26.2326C150.048 21.3127 146.057 17.3213 141.133 17.3213H164.901C165.783 17.3213 166.629 17.4498 167.434 17.6893C171.122 18.7803 173.813 22.1943 173.813 26.2326Z" fill="#FFD6BB"/>
<path d="M163.328 17.3173C158.404 17.3173 154.413 21.313 154.413 26.2329V169.786C154.413 174.706 150.422 178.697 145.502 178.697H45.2786V26.2325C45.2786 21.3126 49.27 17.3169 54.1942 17.3169H163.328V17.3173Z" fill="#FFF3EE"/>
<path d="M138.14 170.963H99.2048C97.0474 170.963 95.2986 169.214 95.2986 167.057V123.105C95.2986 120.948 97.0474 119.199 99.2048 119.199H138.14C140.297 119.199 142.046 120.948 142.046 123.105V167.057C142.046 169.214 140.297 170.963 138.14 170.963Z" fill="#8383FF"/>
<path d="M144.357 178.697H35.2226C30.3027 178.697 26.3113 174.706 26.3113 169.782V162.65C26.3113 160.191 28.3093 158.197 30.7691 158.197H130.988C133.448 158.197 135.446 160.19 135.446 162.65V169.782C135.446 174.706 139.437 178.697 144.357 178.697Z" fill="#FFD6BB"/>
<path d="M164.901 15.3682H133.993C132.915 15.3682 132.04 16.2428 132.04 17.3213C132.04 18.3998 132.915 19.2744 133.993 19.2744H154.985C153.408 21.1607 152.457 23.5885 152.457 26.2338V169.783C152.457 173.621 149.335 176.743 145.498 176.743H144.343C140.512 176.735 137.398 173.616 137.398 169.784V162.654C137.398 159.12 134.523 156.244 130.989 156.244H30.7687C27.2343 156.244 24.3589 159.12 24.3589 162.654V169.784C24.3589 175.775 29.2335 180.65 35.2249 180.65H144.358C144.361 180.65 144.363 180.649 144.366 180.649H145.498C151.489 180.649 156.364 175.774 156.364 169.783V42.01H169.357C172.891 42.01 175.766 39.1346 175.766 35.6006V26.2342C175.767 20.2424 170.892 15.3682 164.901 15.3682ZM28.2651 169.784V162.654C28.2651 161.274 29.3882 160.151 30.7687 160.151H130.989C132.37 160.151 133.492 161.274 133.492 162.654V169.784C133.492 172.429 134.443 174.857 136.019 176.743L35.2249 176.744C31.3874 176.744 28.2651 173.622 28.2651 169.784ZM171.86 35.6006C171.86 36.9811 170.737 38.1037 169.357 38.1037H156.364V26.2338C156.364 22.3963 159.486 19.2744 163.324 19.2744H164.901C168.739 19.2744 171.86 22.3967 171.86 26.2342V35.6006Z" fill="#0000CC"/>
<path d="M45.2776 147.102C46.3561 147.102 47.2307 146.227 47.2307 145.149V26.2338C47.2307 22.3963 50.3526 19.2744 54.1901 19.2744H120.781C121.86 19.2744 122.734 18.3998 122.734 17.3213C122.734 16.2428 121.86 15.3682 120.781 15.3682H54.1901C48.1987 15.3682 43.3245 20.2428 43.3245 26.2338V145.149C43.3245 146.227 44.1987 147.102 45.2776 147.102Z" fill="#0000CC"/>
<path d="M138.139 56.4616H61.8606C59.7032 56.4616 57.9543 54.7128 57.9543 52.5554V32.3374C57.9543 30.18 59.7032 28.4312 61.8606 28.4312H138.14C140.297 28.4312 142.046 30.18 142.046 32.3374V52.5554C142.046 54.7128 140.297 56.4616 138.139 56.4616Z" fill="#FFAB66"/>
<path d="M67.7568 67.4858H60.4978C59.4193 67.4858 58.5447 66.6112 58.5447 65.5327C58.5447 64.4542 59.4193 63.5796 60.4978 63.5796H67.7568C68.8353 63.5796 69.7099 64.4542 69.7099 65.5327C69.7099 66.6112 68.8353 67.4858 67.7568 67.4858Z" fill="#4D4DFF"/>
<path d="M83.3818 74.666H60.4978C59.4193 74.666 58.5447 73.7914 58.5447 72.7129C58.5447 71.6344 59.4193 70.7598 60.4978 70.7598H83.3818C84.4603 70.7598 85.3349 71.6344 85.3349 72.7129C85.3349 73.7914 84.4603 74.666 83.3818 74.666Z" fill="#4D4DFF"/>
<path d="M83.3818 81.8462H60.4978C59.4193 81.8462 58.5447 80.9716 58.5447 79.8931C58.5447 78.8146 59.4193 77.9399 60.4978 77.9399H83.3818C84.4603 77.9399 85.3349 78.8146 85.3349 79.8931C85.3349 80.9716 84.4603 81.8462 83.3818 81.8462Z" fill="#4D4DFF"/>
<path d="M83.3818 89.0269H60.4978C59.4193 89.0269 58.5447 88.1522 58.5447 87.0737C58.5447 85.9952 59.4193 85.1206 60.4978 85.1206H83.3818C84.4603 85.1206 85.3349 85.9952 85.3349 87.0737C85.3349 88.1522 84.4603 89.0269 83.3818 89.0269Z" fill="#4D4DFF"/>
<path d="M83.3818 96.207H60.4978C59.4193 96.207 58.5447 95.3324 58.5447 94.2539C58.5447 93.1754 59.4193 92.3008 60.4978 92.3008H83.3818C84.4603 92.3008 85.3349 93.1754 85.3349 94.2539C85.3349 95.3324 84.4603 96.207 83.3818 96.207Z" fill="#4D4DFF"/>
<path d="M140.093 89.0269H117.183C116.104 89.0269 115.23 88.1522 115.23 87.0737C115.23 85.9952 116.104 85.1206 117.183 85.1206H140.093C141.171 85.1206 142.046 85.9952 142.046 87.0737C142.046 88.1522 141.172 89.0269 140.093 89.0269Z" fill="#FFC599"/>
<path d="M140.092 96.207H97.2515C96.1729 96.207 95.2983 95.3324 95.2983 94.2539C95.2983 93.1754 96.1729 92.3008 97.2515 92.3008H140.092C141.171 92.3008 142.046 93.1754 142.046 94.2539C142.046 95.3324 141.171 96.207 140.092 96.207Z" fill="#4D4DFF"/>
<path d="M140.092 103.387H97.2515C96.1729 103.387 95.2983 102.513 95.2983 101.434C95.2983 100.356 96.1729 99.481 97.2515 99.481H140.092C141.171 99.481 142.046 100.356 142.046 101.434C142.046 102.513 141.171 103.387 140.092 103.387Z" fill="#4D4DFF"/>
<path d="M140.092 110.568H97.2515C96.1729 110.568 95.2983 109.693 95.2983 108.615C95.2983 107.536 96.1729 106.662 97.2515 106.662H140.092C141.171 106.662 142.046 107.536 142.046 108.615C142.046 109.693 141.171 110.568 140.092 110.568Z" fill="#4D4DFF"/>
<path d="M83.3818 103.387H60.4978C59.4193 103.387 58.5447 102.513 58.5447 101.434C58.5447 100.356 59.4193 99.481 60.4978 99.481H83.3818C84.4603 99.481 85.3349 100.356 85.3349 101.434C85.3349 102.513 84.4603 103.387 83.3818 103.387Z" fill="#4D4DFF"/>
<path d="M83.3818 110.568H60.4978C59.4193 110.568 58.5447 109.693 58.5447 108.615C58.5447 107.536 59.4193 106.662 60.4978 106.662H83.3818C84.4603 106.662 85.3349 107.536 85.3349 108.615C85.3349 109.693 84.4603 110.568 83.3818 110.568Z" fill="#4D4DFF"/>
<path d="M83.3818 123.105H60.4978C59.4193 123.105 58.5447 122.231 58.5447 121.152C58.5447 120.074 59.4193 119.199 60.4978 119.199H83.3818C84.4603 119.199 85.3349 120.074 85.3349 121.152C85.3349 122.231 84.4603 123.105 83.3818 123.105Z" fill="#FF4D4D"/>
<path d="M83.3818 130.286H60.4978C59.4193 130.286 58.5447 129.412 58.5447 128.333C58.5447 127.254 59.4193 126.38 60.4978 126.38H83.3818C84.4603 126.38 85.3349 127.254 85.3349 128.333C85.3349 129.412 84.4603 130.286 83.3818 130.286Z" fill="#FF4D4D"/>
<path d="M83.3818 137.466H60.4978C59.4193 137.466 58.5447 136.591 58.5447 135.513C58.5447 134.434 59.4193 133.56 60.4978 133.56H83.3818C84.4603 133.56 85.3349 134.434 85.3349 135.513C85.3349 136.591 84.4603 137.466 83.3818 137.466Z" fill="#FF4D4D"/>
<path d="M83.3818 144.646H60.4978C59.4193 144.646 58.5447 143.772 58.5447 142.693C58.5447 141.615 59.4193 140.74 60.4978 140.74H83.3818C84.4603 140.74 85.3349 141.615 85.3349 142.693C85.3349 143.772 84.4603 144.646 83.3818 144.646Z" fill="#FF4D4D"/>
<path d="M83.3818 151.827H60.4978C59.4193 151.827 58.5447 150.953 58.5447 149.874C58.5447 148.796 59.4193 147.921 60.4978 147.921H83.3818C84.4603 147.921 85.3349 148.796 85.3349 149.874C85.3349 150.953 84.4603 151.827 83.3818 151.827Z" fill="#FF4D4D"/>
<path d="M138.139 81.8464H99.2046C97.0472 81.8464 95.2983 80.0976 95.2983 77.9401V67.4858C95.2983 65.3284 97.0472 63.5796 99.2046 63.5796H138.139C140.297 63.5796 142.046 65.3284 142.046 67.4858V77.9401C142.046 80.0976 140.297 81.8464 138.139 81.8464Z" fill="#FF4D4D"/>
<path d="M119.849 127.867L122.343 135.543H130.414C131.612 135.543 132.111 137.076 131.141 137.781L124.612 142.525L127.106 150.201C127.476 151.341 126.171 152.289 125.202 151.585L118.672 146.84L112.142 151.585C111.173 152.289 109.868 151.341 110.239 150.201L112.733 142.525L106.203 137.781C105.234 137.076 105.732 135.543 106.93 135.543H115.001L117.496 127.867C117.866 126.727 119.478 126.727 119.849 127.867Z" fill="#EBEBFF"/>
<path d="M135.721 127.473C136.927 127.473 137.905 126.495 137.905 125.289C137.905 124.083 136.927 123.105 135.721 123.105C134.515 123.105 133.538 124.083 133.538 125.289C133.538 126.495 134.515 127.473 135.721 127.473Z" fill="#EBEBFF"/>
<path d="M173.666 65.8445C173.263 65.8445 172.86 65.7203 172.518 65.4715L171.252 64.5516L169.986 65.4715C169.302 65.9688 168.375 65.9688 167.69 65.4715C167.005 64.9742 166.719 64.0926 166.98 63.2879L167.464 61.7992L166.198 60.8793C165.514 60.382 165.227 59.5004 165.489 58.6957C165.75 57.891 166.5 57.3461 167.346 57.3461H168.911L169.395 55.8574C169.656 55.0523 170.406 54.5078 171.252 54.5078C172.098 54.5078 172.848 55.0527 173.109 55.8574L173.593 57.3461H175.158C176.004 57.3461 176.754 57.891 177.015 58.6957C177.277 59.5004 176.99 60.382 176.306 60.8793L175.04 61.7992L175.523 63.2879C175.785 64.0926 175.498 64.9742 174.814 65.4715C174.472 65.7203 174.069 65.8445 173.666 65.8445Z" fill="#FF9D33"/>
<path d="M34.4967 124.868C34.094 124.868 33.6908 124.744 33.3487 124.495L32.0826 123.575L30.8162 124.495C30.1315 124.992 29.2049 124.992 28.5201 124.495C27.8358 123.998 27.549 123.116 27.8108 122.311L28.2944 120.823L27.0283 119.903C26.344 119.406 26.0573 118.524 26.319 117.72C26.5807 116.915 27.3303 116.37 28.1764 116.37H29.7412L30.2248 114.881C30.4862 114.077 31.2362 113.532 32.0823 113.532C32.9287 113.532 33.6783 114.077 33.9397 114.881L34.4233 116.37H35.9885C36.8346 116.37 37.5846 116.915 37.8459 117.72C38.1073 118.524 37.8209 119.406 37.1366 119.903L35.8701 120.823L36.3537 122.311C36.6151 123.116 36.3287 123.997 35.6444 124.495C35.3026 124.743 34.8994 124.868 34.4967 124.868Z" fill="#FF4D4D"/>
<path d="M169.969 77.9C169.469 77.9 168.969 77.7094 168.587 77.3281L166.648 75.3891L164.709 77.3281C163.946 78.0906 162.71 78.0906 161.947 77.3281C161.184 76.5652 161.184 75.3285 161.947 74.566L165.267 71.2457C166.03 70.4832 167.267 70.4832 168.03 71.2457L171.35 74.566C172.113 75.3289 172.113 76.5656 171.35 77.3281C170.968 77.7094 170.468 77.9 169.969 77.9Z" fill="#FF4D4D"/>
<path d="M35.403 32.0445C34.903 32.0445 34.4034 31.8539 34.0217 31.4727L32.0827 29.5336L30.1436 31.4727C29.3807 32.2352 28.1444 32.2352 27.3815 31.4727C26.6186 30.7098 26.6186 29.473 27.3815 28.7105L30.7018 25.3902C31.4647 24.6277 32.701 24.6277 33.4639 25.3902L36.7842 28.7105C37.5471 29.4734 37.5471 30.7102 36.7842 31.4727C36.4026 31.8535 35.903 32.0445 35.403 32.0445Z" fill="#4D4DFF"/>
<path d="M173.289 161.811C172.789 161.811 172.289 161.62 171.908 161.239L169.969 159.3L168.03 161.239C167.267 162.001 166.03 162.001 165.267 161.239C164.505 160.476 164.505 159.239 165.267 158.477L168.588 155.156C169.351 154.394 170.587 154.394 171.35 155.156L174.67 158.477C175.433 159.24 175.433 160.476 174.67 161.239C174.289 161.62 173.789 161.811 173.289 161.811Z" fill="#4D4DFF"/>
</g>
<defs>
<linearGradient id="paint0_linear" x1="55.9733" y1="-5.9474" x2="138.649" y2="213.767" gradientUnits="userSpaceOnUse">
<stop stop-color="#FFD9D9" stop-opacity="0"/>
<stop offset="0.9981" stop-color="#FFB3B3"/>
</linearGradient>
<clipPath id="clip0">
<rect width="200" height="200" fill="white"/>
</clipPath>
</defs>
</svg>
